<svg id="Capa_1" data-name="Capa 1" xmlns="http://www.w3.org/2000/svg" viewBox="0 0 1001 250"><defs><style>.cls-1{fill:#f2f2f2;}.cls-2{fill:#173e7b;}.cls-3{fill:#0f3877;}.cls-4{fill:#53709d;}</style></defs><title>LOGO PAGINA</title><rect class="cls-1" width="1001" height="250"/><path class="cls-2" d="M589.9,179.07c-24.79-.85-48.68-4.91-69-19.13-6.1-4.27-10.07-3.21-15.74.31-44.24,27.5-115.63,26.45-156.09-16.59-8.35-8.88-16.25-17.68-22.55-27.78-15.78-25.33-31.14-50.89-47.37-76-3.47-5.37-3.65-8.8,2.47-10.16s11.09-13.33,18.5-2.49a360.88,360.88,0,0,1,19,30.67c11.68,21.44,27,40.73,41.34,60.54,36,49.85,115.36,50.1,153,1,9.73-12.66,20.12-25,26.27-39.73s3-27.6-8.82-35.61c-10.32-7-26.05-6.58-35.41.9-12.17,9.73-13.8,22.24-6,37.21,3,5.79,12.08,10.78,6.29,18.45-3.91,5.17-7.52,12.79-14.88,13.2-7.79.43-8.83-8.1-12-13-16.57-25.8-16.52-47.52-.44-65.65,19.79-22.32,53.77-25.44,82.36-7.57C571,40.26,577.3,70.18,563.35,92.9c-7.69,12.51-17.24,24.09-26.58,35.65-5.58,6.92-4.7,10.61,3.41,15.3,42.77,24.74,104.05,11.31,129.67-29.1C688,86,710,59.4,725.71,29.37c5.49-10.49,10.55-4.32,16.47-1.77,6.79,2.91,10.59,5.61,5.41,13.58-17.57,27.08-33.85,54.89-51.44,82C673,158.85,634,179,589.9,179.07Z" transform="translate(-1 0)"/><path class="cls-3" d="M436,204.15a14.16,14.16,0,0,1-6.5,1.49,9.4,9.4,0,0,1-6.72-2.41,8.37,8.37,0,0,1-2.56-6.4,8.66,8.66,0,0,1,2.84-6.66,10.29,10.29,0,0,1,7.23-2.6,13.55,13.55,0,0,1,5.31.92v2.27a11.09,11.09,0,0,0-5.57-1.34,7.36,7.36,0,0,0-5.35,2,7.81,7.81,0,0,0-.15,10.45,7.15,7.15,0,0,0,5.25,1.9,8.77,8.77,0,0,0,3.94-.82v-4.9H429.5v-1.85H436Z" transform="translate(-1 0)"/><path class="cls-3" d="M451.44,205.35h-2.22v-2h-.05a4.66,4.66,0,0,1-4.28,2.27q-5,0-4.95-5.32v-7.46h2.2V200q0,3.94,3.36,4a3.56,3.56,0,0,0,2.67-1.08,3.88,3.88,0,0,0,1.05-2.83v-7.19h2.22Z" transform="translate(-1 0)"/><path class="cls-3" d="M467.06,199.6h-9.78a4.38,4.38,0,0,0,1.24,3.22A4.55,4.55,0,0,0,461.8,204a7.33,7.33,0,0,0,4.3-1.39v1.88a8.77,8.77,0,0,1-4.83,1.19,6.21,6.21,0,0,1-4.62-1.7,6.53,6.53,0,0,1-1.68-4.79,6.46,6.46,0,0,1,1.84-4.75,6.18,6.18,0,0,1,4.55-1.83,5.5,5.5,0,0,1,4.21,1.58,6.2,6.2,0,0,1,1.49,4.4Zm-2.27-1.69a3.82,3.82,0,0,0-.93-2.7,3.35,3.35,0,0,0-2.54-1,3.8,3.8,0,0,0-2.66,1,4.39,4.39,0,0,0-1.36,2.65Z" transform="translate(-1 0)"/><path class="cls-3" d="M477.64,194.88a3,3,0,0,0-1.67-.4,2.92,2.92,0,0,0-2.38,1.21,5.13,5.13,0,0,0-.95,3.29v6.37h-2.22V192.86h2.22v2.57h.05a4.34,4.34,0,0,1,1.45-2.05,3.52,3.52,0,0,1,2.18-.74,4,4,0,0,1,1.32.17Z" transform="translate(-1 0)"/><path class="cls-3" d="M487.28,194.88a3,3,0,0,0-1.68-.4,2.88,2.88,0,0,0-2.37,1.21,5.13,5.13,0,0,0-1,3.29v6.37h-2.22V192.86h2.22v2.57h.06a4.27,4.27,0,0,1,1.45-2.05,3.5,3.5,0,0,1,2.17-.74,4.12,4.12,0,0,1,1.33.17Z" transform="translate(-1 0)"/><path class="cls-3" d="M500.46,199.6h-9.78a4.38,4.38,0,0,0,1.24,3.22A4.56,4.56,0,0,0,495.2,204a7.33,7.33,0,0,0,4.3-1.39v1.88a8.77,8.77,0,0,1-4.83,1.19,6.18,6.18,0,0,1-4.61-1.7,6.53,6.53,0,0,1-1.68-4.79,6.45,6.45,0,0,1,1.83-4.75,6.19,6.19,0,0,1,4.56-1.83,5.5,5.5,0,0,1,4.2,1.58,6.16,6.16,0,0,1,1.49,4.4Zm-2.27-1.69a3.82,3.82,0,0,0-.93-2.7,3.33,3.33,0,0,0-2.54-1,3.8,3.8,0,0,0-2.66,1,4.49,4.49,0,0,0-1.36,2.65Z" transform="translate(-1 0)"/><path class="cls-3" d="M511.05,194.88a3,3,0,0,0-1.68-.4,2.92,2.92,0,0,0-2.38,1.21A5.19,5.19,0,0,0,506,199v6.37h-2.22V192.86H506v2.57h0a4.34,4.34,0,0,1,1.45-2.05,3.55,3.55,0,0,1,2.18-.74,4.12,4.12,0,0,1,1.33.17Z" transform="translate(-1 0)"/><path class="cls-3" d="M518.88,205.64a6.77,6.77,0,0,1-4.9-1.75,6.09,6.09,0,0,1-1.84-4.64,6.39,6.39,0,0,1,1.91-4.92,7.32,7.32,0,0,1,5.16-1.76,6.58,6.58,0,0,1,4.84,1.72,7.21,7.21,0,0,1-.14,9.55A7,7,0,0,1,518.88,205.64Zm.16-11.39a4.46,4.46,0,0,0-3.38,1.31,5,5,0,0,0-1.24,3.62,4.82,4.82,0,0,0,1.25,3.5A4.54,4.54,0,0,0,519,204a4.26,4.26,0,0,0,3.31-1.26,5,5,0,0,0,1.16-3.57,5.12,5.12,0,0,0-1.16-3.61A4.23,4.23,0,0,0,519,194.25Z" transform="translate(-1 0)"/><path class="cls-3" d="M552.24,205.35h-2.51l-2.06-4.9h-8.23l-1.93,4.9H535l7.45-17.49h2.35Zm-5.32-6.75-3-7.45a6.33,6.33,0,0,1-.3-1.17h-.05a6.36,6.36,0,0,1-.31,1.17l-3,7.45Z" transform="translate(-1 0)"/><path class="cls-3" d="M554,204.9v-2.15a7.1,7.1,0,0,0,4,1.21c1.94,0,2.92-.59,2.92-1.76a1.4,1.4,0,0,0-.25-.85,2.39,2.39,0,0,0-.68-.61,5.17,5.17,0,0,0-1-.48c-.38-.15-.8-.29-1.24-.45q-.91-.33-1.62-.66a5.18,5.18,0,0,1-1.16-.76,2.7,2.7,0,0,1-.7-1,3,3,0,0,1-.24-1.25,2.75,2.75,0,0,1,.45-1.56,3.59,3.59,0,0,1,1.19-1.13,5.52,5.52,0,0,1,1.7-.69,8,8,0,0,1,2-.23,8.6,8.6,0,0,1,3.22.56v2a6.83,6.83,0,0,0-3.52-.9,4.25,4.25,0,0,0-1.12.13,2.51,2.51,0,0,0-.86.36,1.73,1.73,0,0,0-.56.55,1.39,1.39,0,0,0-.2.72,1.57,1.57,0,0,0,.2.81,1.81,1.81,0,0,0,.58.59,4.38,4.38,0,0,0,.92.46l1.23.45c.61.22,1.16.43,1.65.66a5.44,5.44,0,0,1,1.24.75,2.69,2.69,0,0,1,1.07,2.28,2.89,2.89,0,0,1-.45,1.61,3.76,3.76,0,0,1-1.21,1.13,6.07,6.07,0,0,1-1.75.67,9.32,9.32,0,0,1-2.07.22A8.71,8.71,0,0,1,554,204.9Z" transform="translate(-1 0)"/><path class="cls-3" d="M565.72,204.9v-2.15a7.1,7.1,0,0,0,4,1.21c1.95,0,2.92-.59,2.92-1.76a1.4,1.4,0,0,0-.25-.85,2.39,2.39,0,0,0-.68-.61,5.17,5.17,0,0,0-1-.48c-.38-.15-.79-.29-1.24-.45-.61-.22-1.15-.44-1.61-.66a5,5,0,0,1-1.17-.76,2.83,2.83,0,0,1-.7-1,3,3,0,0,1-.24-1.25,2.75,2.75,0,0,1,.45-1.56,3.69,3.69,0,0,1,1.19-1.13,5.52,5.52,0,0,1,1.7-.69,8,8,0,0,1,2-.23,8.6,8.6,0,0,1,3.22.56v2a6.83,6.83,0,0,0-3.52-.9,4.25,4.25,0,0,0-1.12.13,2.51,2.51,0,0,0-.86.36,1.73,1.73,0,0,0-.56.55,1.39,1.39,0,0,0-.2.72,1.57,1.57,0,0,0,.2.81,1.81,1.81,0,0,0,.58.59,4.64,4.64,0,0,0,.92.46l1.23.45c.61.22,1.16.43,1.65.66a5.44,5.44,0,0,1,1.24.75,2.69,2.69,0,0,1,1.07,2.28,2.89,2.89,0,0,1-.45,1.61,3.76,3.76,0,0,1-1.21,1.13,6.07,6.07,0,0,1-1.75.67,9.32,9.32,0,0,1-2.07.22A8.71,8.71,0,0,1,565.72,204.9Z" transform="translate(-1 0)"/><path class="cls-3" d="M579.46,189.69a1.45,1.45,0,0,1-1-.37,1.16,1.16,0,0,1-.42-.92,1.2,1.2,0,0,1,.42-.94,1.5,1.5,0,0,1,1-.37,1.57,1.57,0,0,1,1,.37,1.2,1.2,0,0,1,.42.94,1.19,1.19,0,0,1-.42.91A1.53,1.53,0,0,1,579.46,189.69Zm1.08,15.66h-2.21V192.86h2.21Z" transform="translate(-1 0)"/><path class="cls-3" d="M584.2,204.9v-2.15a7.09,7.09,0,0,0,4,1.21c1.95,0,2.92-.59,2.92-1.76a1.4,1.4,0,0,0-.25-.85,2.34,2.34,0,0,0-.67-.61,5.47,5.47,0,0,0-1-.48l-1.24-.45a16.84,16.84,0,0,1-1.62-.66,5.18,5.18,0,0,1-1.16-.76,2.73,2.73,0,0,1-.71-1,3,3,0,0,1-.23-1.25,2.82,2.82,0,0,1,.44-1.56,3.79,3.79,0,0,1,1.19-1.13,5.72,5.72,0,0,1,1.7-.69,8,8,0,0,1,2-.23,8.6,8.6,0,0,1,3.22.56v2a6.8,6.8,0,0,0-3.52-.9,4.31,4.31,0,0,0-1.12.13,2.68,2.68,0,0,0-.86.36,1.7,1.7,0,0,0-.55.55,1.31,1.31,0,0,0-.2.72,1.48,1.48,0,0,0,.2.81,1.87,1.87,0,0,0,.57.59,4.64,4.64,0,0,0,.92.46l1.23.45a17.14,17.14,0,0,1,1.65.66,5.52,5.52,0,0,1,1.25.75,2.92,2.92,0,0,1,.79,1,3.11,3.11,0,0,1-.18,2.92,3.66,3.66,0,0,1-1.21,1.13,5.9,5.9,0,0,1-1.74.67,9.32,9.32,0,0,1-2.07.22A8.68,8.68,0,0,1,584.2,204.9Z" transform="translate(-1 0)"/><path class="cls-3" d="M603.23,205.23a4.72,4.72,0,0,1-2.07.39q-3.64,0-3.64-3.66v-7.39h-2.39v-1.71h2.39v-3.05l2.22-.65v3.7h3.49v1.71h-3.49v7a2.7,2.7,0,0,0,.47,1.8,2,2,0,0,0,1.57.53,2.57,2.57,0,0,0,1.45-.41Z" transform="translate(-1 0)"/><path class="cls-4" d="M330.25,218.38a.77.77,0,0,1-.54-.22.71.71,0,0,1-.22-.53.73.73,0,0,1,.22-.54.76.76,0,0,1,1.07,0,.73.73,0,0,1,.22.54.71.71,0,0,1-.22.53A.77.77,0,0,1,330.25,218.38Zm.6,8.42h-1.18l.13-7h.92Z" transform="translate(-1 0)"/><path class="cls-4" d="M340.85,223.35a6.54,6.54,0,0,1-3.28.84,4.48,4.48,0,0,1-3.4-1.36,5,5,0,0,1-1.29-3.58,5.09,5.09,0,0,1,1.44-3.73,4.87,4.87,0,0,1,3.64-1.46,6.17,6.17,0,0,1,2.69.52v1.27a5.16,5.16,0,0,0-2.82-.75,3.5,3.5,0,0,0-2.7,1.13,4.74,4.74,0,0,0-.07,5.86,3.41,3.41,0,0,0,2.65,1.07,4.15,4.15,0,0,0,2-.46V220h-2.15v-1h3.3Z" transform="translate(-1 0)"/><path class="cls-4" d="M350.29,220.06q0,4.13-3.72,4.13c-2.38,0-3.57-1.33-3.57-4v-6h1.15v5.92c0,2,.85,3,2.54,3s2.46-1,2.46-2.92v-6h1.14Z" transform="translate(-1 0)"/><path class="cls-4" d="M357.94,224h-5.2v-9.8h5v1h-3.83v3.26h3.54v1h-3.54V223h4.05Z" transform="translate(-1 0)"/><path class="cls-4" d="M366.85,224h-1.37l-1.64-2.74a5.84,5.84,0,0,0-.43-.66,2.61,2.61,0,0,0-.44-.44,1.83,1.83,0,0,0-.48-.25,2,2,0,0,0-.57-.08H361V224h-1.15v-9.8h2.93a4.5,4.5,0,0,1,1.19.16,2.72,2.72,0,0,1,.94.49,2.2,2.2,0,0,1,.62.82,2.55,2.55,0,0,1,.23,1.14,2.81,2.81,0,0,1-.15.94,2.66,2.66,0,0,1-.44.77,2.9,2.9,0,0,1-.68.57,4,4,0,0,1-.9.36v0a2.12,2.12,0,0,1,.42.25,2.15,2.15,0,0,1,.35.33,3.7,3.7,0,0,1,.32.43c.11.17.23.35.36.57ZM361,215.26v3.56h1.56a2.58,2.58,0,0,0,.8-.13,2,2,0,0,0,.63-.38,1.67,1.67,0,0,0,.42-.59,2,2,0,0,0,.15-.79,1.54,1.54,0,0,0-.51-1.23,2.22,2.22,0,0,0-1.48-.44Z" transform="translate(-1 0)"/><path class="cls-4" d="M375.23,224h-1.37l-1.64-2.74a5.8,5.8,0,0,0-.44-.66,3,3,0,0,0-.43-.44,1.83,1.83,0,0,0-.48-.25,2.08,2.08,0,0,0-.58-.08h-.94V224H368.2v-9.8h2.92a4.45,4.45,0,0,1,1.19.16,2.63,2.63,0,0,1,.94.49,2.23,2.23,0,0,1,.63.82,2.7,2.7,0,0,1,.22,1.14,2.81,2.81,0,0,1-.15.94,2.45,2.45,0,0,1-.44.77,2.71,2.71,0,0,1-.68.57,4,4,0,0,1-.9.36v0a2.21,2.21,0,0,1,.43.25,2.1,2.1,0,0,1,.34.33,5.36,5.36,0,0,1,.33.43c.1.17.22.35.36.57Zm-5.88-8.76v3.56h1.56a2.52,2.52,0,0,0,.79-.13,1.8,1.8,0,0,0,.63-.38,1.67,1.67,0,0,0,.42-.59,2,2,0,0,0,.15-.79,1.54,1.54,0,0,0-.51-1.23,2.21,2.21,0,0,0-1.47-.44Z" transform="translate(-1 0)"/><path class="cls-4" d="M381.77,224h-5.2v-9.8h5v1h-3.83v3.26h3.54v1h-3.54V223h4Z" transform="translate(-1 0)"/><path class="cls-4" d="M390.68,224h-1.37l-1.64-2.74a5.84,5.84,0,0,0-.43-.66,2.61,2.61,0,0,0-.44-.44,1.83,1.83,0,0,0-.48-.25,2,2,0,0,0-.57-.08h-.95V224h-1.15v-9.8h2.93a4.5,4.5,0,0,1,1.19.16,2.72,2.72,0,0,1,.94.49,2.2,2.2,0,0,1,.62.82,2.55,2.55,0,0,1,.23,1.14,2.81,2.81,0,0,1-.15.94,2.66,2.66,0,0,1-.44.77,2.9,2.9,0,0,1-.68.57,4,4,0,0,1-.9.36v0a2.12,2.12,0,0,1,.42.25,2.15,2.15,0,0,1,.35.33,3.7,3.7,0,0,1,.32.43c.11.17.23.35.36.57Zm-5.88-8.76v3.56h1.56a2.58,2.58,0,0,0,.8-.13,2,2,0,0,0,.63-.38,1.67,1.67,0,0,0,.42-.59,2,2,0,0,0,.15-.79,1.54,1.54,0,0,0-.51-1.23,2.21,2.21,0,0,0-1.47-.44Z" transform="translate(-1 0)"/><path class="cls-4" d="M395.84,224.19a4.3,4.3,0,0,1-3.34-1.38,5.09,5.09,0,0,1-1.25-3.57,5.38,5.38,0,0,1,1.28-3.77,4.46,4.46,0,0,1,3.48-1.41,4.21,4.21,0,0,1,3.27,1.36,5.18,5.18,0,0,1,1.24,3.58,5.44,5.44,0,0,1-1.27,3.79A4.4,4.4,0,0,1,395.84,224.19Zm.08-9.09a3.16,3.16,0,0,0-2.5,1.11,4.28,4.28,0,0,0-1,2.93,4.37,4.37,0,0,0,.94,2.91,3.07,3.07,0,0,0,2.45,1.11,3.21,3.21,0,0,0,2.55-1.06,4.29,4.29,0,0,0,.93-2.94,4.48,4.48,0,0,0-.91-3A3.08,3.08,0,0,0,395.92,215.1Z" transform="translate(-1 0)"/><path class="cls-4" d="M402.69,222.47l-1.09,3.36h-.8l.8-3.36Z" transform="translate(-1 0)"/><path class="cls-4" d="M408.23,223.63v-1.36a2.37,2.37,0,0,0,.56.37,4.61,4.61,0,0,0,.68.28,4.69,4.69,0,0,0,.72.17,3.32,3.32,0,0,0,.67.07,2.53,2.53,0,0,0,1.58-.4,1.33,1.33,0,0,0,.53-1.13,1.31,1.31,0,0,0-.18-.69,1.82,1.82,0,0,0-.48-.53,4.18,4.18,0,0,0-.73-.47l-.9-.47c-.35-.17-.66-.35-1-.52a4.34,4.34,0,0,1-.77-.59,2.64,2.64,0,0,1-.52-.73,2.33,2.33,0,0,1-.19-.95,2.21,2.21,0,0,1,.3-1.17,2.51,2.51,0,0,1,.77-.82,3.72,3.72,0,0,1,1.09-.48,5.22,5.22,0,0,1,1.25-.15,4.67,4.67,0,0,1,2.11.35v1.29a4.34,4.34,0,0,0-3-.53,2.34,2.34,0,0,0-.67.26,1.41,1.41,0,0,0-.48.46,1.23,1.23,0,0,0-.18.68,1.33,1.33,0,0,0,.14.65,1.48,1.48,0,0,0,.41.5,3.7,3.7,0,0,0,.67.44c.26.14.56.3.9.46s.69.36,1,.55a4.46,4.46,0,0,1,.83.64,3,3,0,0,1,.56.77,2.16,2.16,0,0,1,.21,1,2.49,2.49,0,0,1-.28,1.23,2.39,2.39,0,0,1-.77.81,3.25,3.25,0,0,1-1.11.46,6.31,6.31,0,0,1-1.33.14,4.43,4.43,0,0,1-.57,0,6,6,0,0,1-.7-.11,6.55,6.55,0,0,1-.67-.18A2.47,2.47,0,0,1,408.23,223.63Z" transform="translate(-1 0)"/><path class="cls-4" d="M423.3,220.06c0,2.75-1.25,4.13-3.73,4.13s-3.57-1.33-3.57-4v-6h1.15v5.92c0,2,.85,3,2.54,3s2.46-1,2.46-2.92v-6h1.15Z" transform="translate(-1 0)"/><path class="cls-4" d="M434.66,224h-5.08v-9.8h1.15V223h3.93Z" transform="translate(-1 0)"/><path class="cls-4" d="M443.14,220.06q0,4.13-3.72,4.13c-2.38,0-3.57-1.33-3.57-4v-6H437v5.92c0,2,.84,3,2.54,3s2.45-1,2.45-2.92v-6h1.15Z" transform="translate(-1 0)"/><path class="cls-4" d="M452.92,223.35a6.55,6.55,0,0,1-3.29.84,4.46,4.46,0,0,1-3.39-1.36,5,5,0,0,1-1.29-3.58,5.08,5.08,0,0,1,1.43-3.73,4.89,4.89,0,0,1,3.65-1.46,6.17,6.17,0,0,1,2.69.52v1.27a5.19,5.19,0,0,0-2.82-.75,3.5,3.5,0,0,0-2.7,1.13,4.17,4.17,0,0,0-1.05,2.94,4.11,4.11,0,0,0,1,2.92,3.41,3.41,0,0,0,2.65,1.07,4.18,4.18,0,0,0,2-.46V220h-2.15v-1h3.3Z" transform="translate(-1 0)"/><path class="cls-4" d="M462.78,224h-1.27l-1-2.74h-4.16l-1,2.74h-1.28l3.76-9.8H459Zm-2.69-3.78-1.53-4.17a4.18,4.18,0,0,1-.15-.66h0a4,4,0,0,1-.16.66l-1.52,4.17Z" transform="translate(-1 0)"/><path class="cls-4" d="M471.25,224h-1.37l-1.64-2.74a4.72,4.72,0,0,0-.44-.66,2.57,2.57,0,0,0-.43-.44,1.83,1.83,0,0,0-.48-.25,2,2,0,0,0-.58-.08h-.94V224h-1.15v-9.8h2.93a4.37,4.37,0,0,1,1.18.16,2.68,2.68,0,0,1,.95.49,2.31,2.31,0,0,1,.62.82,2.7,2.7,0,0,1,.23,1.14,2.81,2.81,0,0,1-.15.94,2.66,2.66,0,0,1-.44.77,2.76,2.76,0,0,1-.69.57,3.76,3.76,0,0,1-.89.36v0a2.12,2.12,0,0,1,.42.25,2.15,2.15,0,0,1,.35.33,3.7,3.7,0,0,1,.32.43c.11.17.23.35.36.57Zm-5.88-8.76v3.56h1.56a2.58,2.58,0,0,0,.8-.13,2,2,0,0,0,.63-.38,1.67,1.67,0,0,0,.42-.59,2,2,0,0,0,.15-.79,1.54,1.54,0,0,0-.51-1.23,2.22,2.22,0,0,0-1.48-.44Z" transform="translate(-1 0)"/><path class="cls-4" d="M476,223.63v-1.36a2.59,2.59,0,0,0,.56.37,5.72,5.72,0,0,0,.68.28,4.55,4.55,0,0,0,.73.17,3.25,3.25,0,0,0,.67.07,2.57,2.57,0,0,0,1.58-.4,1.32,1.32,0,0,0,.52-1.13,1.41,1.41,0,0,0-.17-.69,2,2,0,0,0-.49-.53,4.08,4.08,0,0,0-.72-.47l-.91-.47c-.34-.17-.66-.35-1-.52a4.73,4.73,0,0,1-.77-.59,2.41,2.41,0,0,1-.51-.73,2.18,2.18,0,0,1-.19-.95,2.31,2.31,0,0,1,.29-1.17,2.62,2.62,0,0,1,.77-.82,3.84,3.84,0,0,1,1.09-.48,5.28,5.28,0,0,1,1.25-.15,4.64,4.64,0,0,1,2.11.35v1.29a4.34,4.34,0,0,0-3-.53,2.34,2.34,0,0,0-.67.26,1.47,1.47,0,0,0-.47.46,1.16,1.16,0,0,0-.19.68,1.45,1.45,0,0,0,.14.65,1.48,1.48,0,0,0,.41.5,4.58,4.58,0,0,0,.67.44c.26.14.56.3.91.46s.68.36,1,.55a4.15,4.15,0,0,1,.83.64,2.8,2.8,0,0,1,.57.77,2.3,2.3,0,0,1,.2,1,2.49,2.49,0,0,1-.28,1.23,2.3,2.3,0,0,1-.77.81,3.25,3.25,0,0,1-1.11.46,6.28,6.28,0,0,1-1.32.14,4.45,4.45,0,0,1-.58,0,5.81,5.81,0,0,1-.69-.11,6.11,6.11,0,0,1-.68-.18A2.47,2.47,0,0,1,476,223.63Z" transform="translate(-1 0)"/><path class="cls-4" d="M489.06,224h-5.19v-9.8h5v1H485v3.26h3.54v1H485V223h4Z" transform="translate(-1 0)"/><path class="cls-4" d="M498.28,223.35a6.54,6.54,0,0,1-3.28.84,4.48,4.48,0,0,1-3.4-1.36,5,5,0,0,1-1.29-3.58,5.09,5.09,0,0,1,1.44-3.73,4.87,4.87,0,0,1,3.64-1.46,6.14,6.14,0,0,1,2.69.52v1.27a5.16,5.16,0,0,0-2.82-.75,3.53,3.53,0,0,0-2.7,1.13,4.74,4.74,0,0,0-.07,5.86,3.41,3.41,0,0,0,2.65,1.07,4.15,4.15,0,0,0,2-.46V220H495v-1h3.3Z" transform="translate(-1 0)"/><path class="cls-4" d="M507.73,220.06c0,2.75-1.25,4.13-3.73,4.13s-3.57-1.33-3.57-4v-6h1.15v5.92c0,2,.85,3,2.54,3s2.46-1,2.46-2.92v-6h1.15Z" transform="translate(-1 0)"/><path class="cls-4" d="M517.2,224h-1.37l-1.64-2.74a5.84,5.84,0,0,0-.43-.66,3,3,0,0,0-.44-.44,1.83,1.83,0,0,0-.48-.25,2,2,0,0,0-.57-.08h-.95V224h-1.15v-9.8h2.93a4.5,4.5,0,0,1,1.19.16,2.72,2.72,0,0,1,.94.49,2.2,2.2,0,0,1,.62.82,2.7,2.7,0,0,1,.23,1.14,2.81,2.81,0,0,1-.15.94,2.66,2.66,0,0,1-.44.77,2.76,2.76,0,0,1-.69.57,3.76,3.76,0,0,1-.89.36v0a2.12,2.12,0,0,1,.42.25,2.15,2.15,0,0,1,.35.33,3.7,3.7,0,0,1,.32.43c.11.17.23.35.36.57Zm-5.88-8.76v3.56h1.56a2.58,2.58,0,0,0,.8-.13,2,2,0,0,0,.63-.38,1.67,1.67,0,0,0,.42-.59,2,2,0,0,0,.15-.79,1.54,1.54,0,0,0-.51-1.23,2.22,2.22,0,0,0-1.48-.44Z" transform="translate(-1 0)"/><path class="cls-4" d="M522.36,224.19a4.3,4.3,0,0,1-3.34-1.38,5.09,5.09,0,0,1-1.25-3.57,5.34,5.34,0,0,1,1.28-3.77,4.46,4.46,0,0,1,3.48-1.41,4.21,4.21,0,0,1,3.27,1.36A5.18,5.18,0,0,1,527,219a5.44,5.44,0,0,1-1.27,3.79A4.4,4.4,0,0,1,522.36,224.19Zm.08-9.09a3.14,3.14,0,0,0-2.5,1.11,4.28,4.28,0,0,0-1,2.93,4.37,4.37,0,0,0,.94,2.91,3.06,3.06,0,0,0,2.45,1.11,3.21,3.21,0,0,0,2.55-1.06,4.33,4.33,0,0,0,.92-2.94,4.48,4.48,0,0,0-.9-3A3.08,3.08,0,0,0,522.44,215.1Z" transform="translate(-1 0)"/><path class="cls-4" d="M538,224h-5.2v-9.8h5v1H534v3.26h3.54v1H534V223h4Z" transform="translate(-1 0)"/><path class="cls-4" d="M547.79,224h-1.41l-5-7.81a3.19,3.19,0,0,1-.31-.61h0a11.63,11.63,0,0,1,0,1.34V224h-1.15v-9.8h1.49l4.91,7.69a7.6,7.6,0,0,1,.4.66h0a9.67,9.67,0,0,1-.07-1.44v-6.91h1.15Z" transform="translate(-1 0)"/><path class="cls-4" d="M561.36,220.06q0,4.13-3.72,4.13c-2.38,0-3.57-1.33-3.57-4v-6h1.15v5.92c0,2,.84,3,2.54,3s2.45-1,2.45-2.92v-6h1.15Z" transform="translate(-1 0)"/><path class="cls-4" d="M571.71,224H570.3l-5-7.81a4,4,0,0,1-.32-.61h0a9.08,9.08,0,0,1,.06,1.34V224h-1.15v-9.8h1.49l4.91,7.69q.3.48.39.66h0a9.67,9.67,0,0,1-.07-1.44v-6.91h1.15Z" transform="translate(-1 0)"/><path class="cls-4" d="M588.11,224H587v-6.57c0-.52,0-1.16.09-1.91h0a5.7,5.7,0,0,1-.3,1L583.39,224h-.56l-3.34-7.47a5.67,5.67,0,0,1-.29-1h0c0,.39.05,1,.05,1.92V224h-1.1v-9.8h1.51l3,6.84a9.06,9.06,0,0,1,.45,1.17h0c.2-.53.36-.94.48-1.2l3.06-6.81h1.44Z" transform="translate(-1 0)"/><path class="cls-4" d="M597.86,220.06q0,4.13-3.73,4.13c-2.38,0-3.57-1.33-3.57-4v-6h1.15v5.92c0,2,.85,3,2.55,3s2.45-1,2.45-2.92v-6h1.15Z" transform="translate(-1 0)"/><path class="cls-4" d="M608.21,224H606.8l-5-7.81a3.89,3.89,0,0,1-.31-.61h0a9.63,9.63,0,0,1,.05,1.34V224h-1.14v-9.8h1.49l4.9,7.69a7.6,7.6,0,0,1,.4.66h0a9.67,9.67,0,0,1-.07-1.44v-6.91h1.15Z" transform="translate(-1 0)"/><path class="cls-4" d="M610.78,224v-9.8h2.71q5.18,0,5.18,4.78a4.83,4.83,0,0,1-1.44,3.65,5.34,5.34,0,0,1-3.85,1.37Zm1.15-8.76V223h1.46a4.16,4.16,0,0,0,3-1,3.84,3.84,0,0,0,1.07-2.92q0-3.76-4-3.77Z" transform="translate(-1 0)"/><path class="cls-4" d="M624.55,224.19a4.29,4.29,0,0,1-3.34-1.38,5.06,5.06,0,0,1-1.26-3.57,5.38,5.38,0,0,1,1.28-3.77,4.46,4.46,0,0,1,3.48-1.41,4.21,4.21,0,0,1,3.27,1.36,5.13,5.13,0,0,1,1.24,3.58,5.4,5.4,0,0,1-1.27,3.79A4.38,4.38,0,0,1,624.55,224.19Zm.08-9.09a3.16,3.16,0,0,0-2.51,1.11,5,5,0,0,0,0,5.84,3.08,3.08,0,0,0,2.46,1.11,3.2,3.2,0,0,0,2.54-1.06,4.29,4.29,0,0,0,.93-2.94,4.48,4.48,0,0,0-.9-3A3.11,3.11,0,0,0,624.63,215.1Z" transform="translate(-1 0)"/><path class="cls-4" d="M636.13,224H635v-9.8h1.15Z" transform="translate(-1 0)"/><path class="cls-4" d="M646.61,224H645.2l-5-7.81a4,4,0,0,1-.32-.61h0a9.08,9.08,0,0,1,.06,1.34V224h-1.15v-9.8h1.49l4.91,7.69a6.73,6.73,0,0,1,.39.66h0a11.3,11.3,0,0,1-.07-1.44v-6.91h1.15Z" transform="translate(-1 0)"/><path class="cls-4" d="M648.72,223.63v-1.36a2.86,2.86,0,0,0,.56.37,5.72,5.72,0,0,0,.68.28,4.55,4.55,0,0,0,.73.17,3.25,3.25,0,0,0,.67.07,2.57,2.57,0,0,0,1.58-.4,1.32,1.32,0,0,0,.52-1.13,1.41,1.41,0,0,0-.17-.69,2.16,2.16,0,0,0-.48-.53,4.6,4.6,0,0,0-.73-.47l-.91-.47c-.34-.17-.66-.35-1-.52a4.73,4.73,0,0,1-.77-.59,2.41,2.41,0,0,1-.51-.73,2.18,2.18,0,0,1-.19-.95,2.31,2.31,0,0,1,.29-1.17,2.74,2.74,0,0,1,.77-.82,3.84,3.84,0,0,1,1.09-.48,5.28,5.28,0,0,1,1.25-.15,4.64,4.64,0,0,1,2.11.35v1.29a3.8,3.8,0,0,0-2.22-.6,3.91,3.91,0,0,0-.76.07,2.34,2.34,0,0,0-.67.26,1.47,1.47,0,0,0-.47.46,1.16,1.16,0,0,0-.19.68,1.45,1.45,0,0,0,.14.65,1.41,1.41,0,0,0,.42.5,4,4,0,0,0,.66.44c.26.14.57.3.91.46s.68.36,1,.55a4.08,4.08,0,0,1,.82.64,2.8,2.8,0,0,1,.57.77,2.16,2.16,0,0,1,.21,1,2.49,2.49,0,0,1-.29,1.23,2.36,2.36,0,0,1-.76.81,3.39,3.39,0,0,1-1.12.46,6.28,6.28,0,0,1-1.32.14,4.45,4.45,0,0,1-.58,0,5.81,5.81,0,0,1-.69-.11,6.75,6.75,0,0,1-.68-.18A2.47,2.47,0,0,1,648.72,223.63Z" transform="translate(-1 0)"/><path class="cls-4" d="M661.82,224h-5.2v-9.8h5v1h-3.83v3.26h3.54v1h-3.54V223h4.05Z" transform="translate(-1 0)"/><path class="cls-4" d="M671,223.35a6.51,6.51,0,0,1-3.28.84,4.48,4.48,0,0,1-3.4-1.36,5,5,0,0,1-1.29-3.58,5.09,5.09,0,0,1,1.44-3.73,4.87,4.87,0,0,1,3.65-1.46,6.13,6.13,0,0,1,2.68.52v1.27a5.16,5.16,0,0,0-2.82-.75,3.49,3.49,0,0,0-2.69,1.13,4.72,4.72,0,0,0-.08,5.86,3.43,3.43,0,0,0,2.65,1.07,4.15,4.15,0,0,0,2-.46V220h-2.14v-1H671Z" transform="translate(-1 0)"/><path class="cls-4" d="M680.48,220.06c0,2.75-1.25,4.13-3.73,4.13s-3.57-1.33-3.57-4v-6h1.15v5.92c0,2,.85,3,2.54,3s2.46-1,2.46-2.92v-6h1.15Z" transform="translate(-1 0)"/><path class="cls-4" d="M690,224h-1.37l-1.64-2.74a5.84,5.84,0,0,0-.43-.66,2.61,2.61,0,0,0-.44-.44,1.83,1.83,0,0,0-.48-.25,2,2,0,0,0-.57-.08h-.95V224h-1.15v-9.8h2.93a4.5,4.5,0,0,1,1.19.16,2.72,2.72,0,0,1,.94.49,2.23,2.23,0,0,1,.63.82,2.7,2.7,0,0,1,.22,1.14,2.81,2.81,0,0,1-.15.94,2.45,2.45,0,0,1-.44.77,2.9,2.9,0,0,1-.68.57,4,4,0,0,1-.9.36v0a2.12,2.12,0,0,1,.42.25,1.81,1.81,0,0,1,.35.33,3.7,3.7,0,0,1,.32.43c.11.17.23.35.36.57Zm-5.88-8.76v3.56h1.56a2.58,2.58,0,0,0,.8-.13,2,2,0,0,0,.63-.38,1.67,1.67,0,0,0,.42-.59,2,2,0,0,0,.15-.79,1.54,1.54,0,0,0-.51-1.23,2.21,2.21,0,0,0-1.47-.44Z" transform="translate(-1 0)"/><path class="cls-4" d="M695.11,224.19a4.3,4.3,0,0,1-3.34-1.38,5.09,5.09,0,0,1-1.25-3.57,5.34,5.34,0,0,1,1.28-3.77,4.46,4.46,0,0,1,3.48-1.41,4.21,4.21,0,0,1,3.27,1.36,5.18,5.18,0,0,1,1.24,3.58,5.44,5.44,0,0,1-1.27,3.79A4.4,4.4,0,0,1,695.11,224.19Zm.08-9.09a3.14,3.14,0,0,0-2.5,1.11,4.28,4.28,0,0,0-1,2.93,4.37,4.37,0,0,0,.94,2.91,3.07,3.07,0,0,0,2.45,1.11,3.21,3.21,0,0,0,2.55-1.06,4.28,4.28,0,0,0,.92-2.94,4.48,4.48,0,0,0-.9-3A3.08,3.08,0,0,0,695.19,215.1Z" transform="translate(-1 0)"/><path class="cls-4" d="M702.42,224.15a.77.77,0,0,1-.54-.22.75.75,0,0,1-.22-.53.77.77,0,0,1,.22-.54.73.73,0,0,1,.54-.22.71.71,0,0,1,.53.22.74.74,0,0,1,.23.54.72.72,0,0,1-.23.53A.75.75,0,0,1,702.42,224.15Zm.57-9.93-.13,7h-.92l-.12-7Z" transform="translate(-1 0)"/></svg>